<?xml version="1.0" standalone="no"?><!DOCTYPE svg PUBLIC "-//W3C//DTD SVG 1.1//EN" "http://www.w3.org/Graphics/SVG/1.1/DTD/svg11.dtd"><svg class="icon" height="512" viewBox="0 0 1024 1024" version="1.1" xmlns="http://www.w3.org/2000/svg"><path d="M956.566586 129.966093C953.776051 127.757485 949.957318 127.367117 946.844762 129.011411L68.937651 577.948762C65.669779 579.627219 63.74384 583.090797 64.027552 586.749037 64.349581 590.405203 66.82016 593.514656 70.318938 594.630867L364.190624 688.040755C367.28247 689.01097 370.621792 688.286157 372.991936 686.130349L779.534912 319.843539 454.934227 704.067424C452.971014 706.381651 452.301082 709.544947 453.166714 712.459738 454.030278 715.376595 456.293773 717.67529 459.205453 718.557491L785.297184 817.88807C786.140038 818.154182 787.030528 818.276365 787.911693 818.276365 789.462797 818.276365 791.018042 817.869434 792.399328 817.090771 794.553062 815.856518 796.126944 813.78873 796.708864 811.365779L959.743341 139.206438C960.57895 135.762534 959.33641 132.158138 956.566586 129.966093L956.566586 129.966093ZM554.617888 789.89472 464.491418 762.170586C461.769222 761.28631 458.768493 761.817498 456.468762 763.529094 454.153498 765.246899 452.791885 767.948384 452.791885 770.811405L452.791885 940.91385C452.791885 944.944851 455.445734 948.477805 459.328672 949.607475 460.143565 949.838381 460.992634 949.9616 461.844806 949.9616 464.882816 949.9616 467.79657 948.423962 469.479168 945.754573L559.59529 803.381434C561.116365 800.99369 561.435283 798.042662 560.446432 795.410554 559.474144 792.759802 557.317306 790.727219 554.617888 789.89472L554.617888 789.89472Z" /></svg>